# Blender v2.80 (sub 75) OBJ File: ''
# www.blender.org
v 1.011075 0.100000 -2.010542
v 0.988925 -0.100000 -1.988405
v 1.011075 0.100000 -0.010542
v 0.988925 -0.100000 0.011595
v -1.000000 0.100000 -0.000526
v -1.000000 -0.100000 -0.000526
v -1.000000 0.100000 1.999474
v -1.000000 -0.100000 1.999474
vt 0.625000 0.000000
vt 0.375000 0.250000
vt 0.375000 0.000000
vt 0.375000 0.250000
vt 0.625000 0.500000
vt 0.375000 0.500000
vt 0.375000 0.750000
vt 0.625000 1.000000
vt 0.375000 1.000000
vt 0.125000 0.500000
vt 0.375000 0.750000
vt 0.125000 0.750000
vt 0.875000 0.500000
vt 0.625000 0.750000
vt 0.625000 0.500000
vt 0.625000 0.250000
vt 0.625000 0.250000
vt 0.625000 0.750000
vt 0.375000 0.500000
vt 0.875000 0.750000
vn 0.0000 1.0000 0.0000
vn 0.7069 0.0000 0.7073
vn -1.0000 0.0000 0.0000
vn 0.0000 -1.0000 0.0000
vn 0.9939 -0.1101 0.0000
vn -0.7069 0.0000 -0.7073
s off
f 5/1/1 3/2/1 1/3/1
f 4/4/2 7/5/2 8/6/2
f 7/5/3 6/7/3 8/6/3
f 6/7/4 4/8/4 8/9/4
f 2/10/5 3/11/5 4/12/5
f 5/13/6 2/14/6 6/15/6
f 5/1/1 7/16/1 3/2/1
f 4/4/2 3/17/2 7/5/2
f 7/5/3 5/18/3 6/7/3
f 6/7/4 2/14/4 4/8/4
f 2/10/5 1/19/5 3/11/5
f 5/13/6 1/20/6 2/14/6
